Normalized EMG Linear Envelopes
nRows=146
nColumns=4

endheader
time	 med_gas_r	  soleus_r	 tib_ant_r	
3.5	  0.001777	  0.020922	  0.000984	
3.5625	  0.003258	  0.020897	  0.000998	
3.625	  0.004388	  0.020926	  0.001021	
3.6875	  0.004949	  0.020948	  0.001059	
3.75	  0.005101	  0.020782	  0.001107	
3.8125	  0.005186	  0.020212	  0.001141	
3.875	  0.005318	  0.019162	  0.001138	
3.9375	  0.005436	  0.017794	  0.001104	
4	  0.005502	  0.016483	  0.001068	
4.0625	  0.005527	  0.015603	  0.001049	
4.125	  0.005632	  0.015278	  0.001044	
4.1875	  0.005981	  0.015301	  0.001048	
4.25	  0.006553	  0.015311	  0.001058	
4.3125	  0.007118	  0.015072	  0.001065	
4.375	  0.007511	  0.014627	  0.001066	
4.4375	  0.007753	  0.014187	  0.001075	
4.5	  0.007926	  0.013943	  0.001101	
4.5625	  0.008113	  0.014011	  0.001154	
4.625	  0.008418	  0.014457	  0.001232	
4.6875	  0.008887	  0.015258	  0.001311	
4.75	  0.009398	  0.016180	  0.001343	
4.8125	  0.009698	  0.016739	  0.001302	
4.875	  0.009792	  0.016500	  0.001209	
4.9375	  0.010640	  0.015616	  0.001153	
5	  0.014906	  0.015454	  0.001283	
5.0625	  0.026845	  0.019386	  0.001787	
5.125	  0.049125	  0.032228	  0.002799	
5.1875	  0.079125	  0.057235	  0.004296	
5.25	  0.111786	  0.093809	  0.006162	
5.3125	  0.143710	  0.136442	  0.008226	
5.375	  0.169591	  0.173817	  0.010076	
5.4375	  0.183775	  0.196086	  0.011211	
5.5	  0.190802	  0.206766	  0.011659	
5.5625	  0.201493	  0.217776	  0.011893	
5.625	  0.216893	  0.233217	  0.012194	
5.6875	  0.228796	  0.249187	  0.012658	
5.75	  0.234043	  0.265509	  0.013525	
5.8125	  0.237982	  0.287633	  0.015089	
5.875	  0.245318	  0.319286	  0.017401	
5.9375	  0.253999	  0.357204	  0.020052	
6	  0.258892	  0.391310	  0.022291	
6.0625	  0.258204	  0.410859	  0.023553	
6.125	  0.255174	  0.413624	  0.023888	
6.1875	  0.256886	  0.408293	  0.023961	
6.25	  0.271478	  0.405993	  0.024711	
6.3125	  0.302160	  0.411776	  0.026847	
6.375	  0.344058	  0.426299	  0.030548	
6.4375	  0.388289	  0.449829	  0.035544	
6.5	  0.427968	  0.479193	  0.041265	
6.5625	  0.461307	  0.506831	  0.046857	
6.625	  0.491262	  0.528047	  0.051432	
6.6875	  0.521686	  0.543313	  0.054473	
6.75	  0.549989	  0.550525	  0.055677	
6.8125	  0.564946	  0.543583	  0.054807	
6.875	  0.559523	  0.521748	  0.052262	
6.9375	  0.542502	  0.493328	  0.049122	
7	  0.529150	  0.470048	  0.046460	
7.0625	  0.526769	  0.459869	  0.045017	
7.125	  0.532904	  0.460468	  0.045010	
7.1875	  0.538985	  0.460039	  0.046039	
7.25	  0.537105	  0.449354	  0.047610	
7.3125	  0.530323	  0.431607	  0.049490	
7.375	  0.530386	  0.416645	  0.051266	
7.4375	  0.541587	  0.408848	  0.052138	
7.5	  0.556014	  0.406593	  0.051804	
7.5625	  0.565091	  0.409487	  0.051101	
7.625	  0.564697	  0.417295	  0.050949	
7.6875	  0.551270	  0.423483	  0.051094	
7.75	  0.525813	  0.418898	  0.050769	
7.8125	  0.499822	  0.404349	  0.049969	
7.875	  0.486193	  0.392819	  0.049486	
7.9375	  0.487235	  0.395339	  0.050325	
8	  0.498667	  0.410335	  0.052999	
8.0625	  0.516001	  0.429368	  0.056446	
8.125	  0.531017	  0.445963	  0.058120	
8.1875	  0.533771	  0.455956	  0.056135	
8.25	  0.521436	  0.456526	  0.051101	
8.3125	  0.499821	  0.448868	  0.045630	
8.375	  0.479086	  0.437616	  0.042400	
8.4375	  0.466856	  0.425416	  0.042178	
8.5	  0.461758	  0.411041	  0.043279	
8.5625	  0.456196	  0.393393	  0.043435	
8.625	  0.444810	  0.374102	  0.042146	
8.6875	  0.428929	  0.355781	  0.040651	
8.75	  0.416052	  0.340436	  0.040146	
8.8125	  0.414365	  0.329306	  0.040833	
8.875	  0.424139	  0.322591	  0.042325	
8.9375	  0.437043	  0.321337	  0.044262	
9	  0.446572	  0.328962	  0.046339	
9.0625	  0.454521	  0.345174	  0.048025	
9.125	  0.465591	  0.359583	  0.048808	
9.1875	  0.480188	  0.359611	  0.048547	
9.25	  0.493356	  0.345215	  0.047321	
9.3125	  0.498603	  0.328716	  0.045294	
9.375	  0.492812	  0.320183	  0.042851	
9.4375	  0.478161	  0.319579	  0.040740	
9.5	  0.460960	  0.322604	  0.039946	
9.5625	  0.449271	  0.327874	  0.040801	
9.625	  0.446865	  0.336183	  0.042262	
9.6875	  0.447632	  0.344615	  0.042934	
9.75	  0.441632	  0.345163	  0.042420	
9.8125	  0.425605	  0.331488	  0.041147	
9.875	  0.400914	  0.303498	  0.039851	
9.9375	  0.365047	  0.263273	  0.039640	
10	  0.312670	  0.212240	  0.041607	
10.0625	  0.243523	  0.155226	  0.045490	
10.125	  0.165891	  0.101997	  0.048323	
10.1875	  0.093610	  0.061448	  0.046514	
10.25	  0.039590	  0.036232	  0.041174	
10.3125	  0.008992	  0.023579	  0.038574	
10.375	 -0.002405	  0.019045	  0.042779	
10.4375	 -0.003092	  0.018710	  0.049824	
10.5	 -0.000128	  0.019505	  0.051727	
10.5625	  0.002743	  0.019422	  0.045405	
10.625	  0.004318	  0.018054	  0.034528	
10.6875	  0.004655	  0.016254	  0.023644	
10.75	  0.004243	  0.014896	  0.014827	
10.8125	  0.003613	  0.014233	  0.008825	
10.875	  0.003106	  0.014130	  0.005603	
10.9375	  0.002825	  0.014310	  0.004217	
11	  0.002720	  0.014473	  0.003570	
11.0625	  0.002688	  0.014449	  0.003079	
11.125	  0.002649	  0.014259	  0.002631	
11.1875	  0.002603	  0.014007	  0.002266	
11.25	  0.002603	  0.013773	  0.001980	
11.3125	  0.002668	  0.013639	  0.001749	
11.375	  0.002734	  0.013653	  0.001593	
11.4375	  0.002725	  0.013767	  0.001527	
11.5	  0.002634	  0.013870	  0.001533	
11.5625	  0.002516	  0.013919	  0.001570	
11.625	  0.002419	  0.013968	  0.001596	
11.6875	  0.002341	  0.014081	  0.001591	
11.75	  0.002260	  0.014262	  0.001563	
11.8125	  0.002168	  0.014470	  0.001536	
11.875	  0.002086	  0.014663	  0.001527	
11.9375	  0.002044	  0.014821	  0.001542	
12	  0.002057	  0.014942	  0.001575	
12.0625	  0.002111	  0.015064	  0.001603	
12.125	  0.002177	  0.015256	  0.001594	
12.1875	  0.002225	  0.015541	  0.001549	
12.25	  0.002234	  0.015841	  0.001528	
12.3125	  0.002202	  0.016062	  0.001606	
12.375	  0.002144	  0.016194	  0.001802	
12.4375	  0.002072	  0.016283	  0.002049	
12.5	  0.001990	  0.016366	  0.002241	
12.5625	  0.001905	  0.016455	  0.002349	
